<svg id="图层_1" data-name="图层 1" xmlns="http://www.w3.org/2000/svg" viewBox="0 0 227 70"><defs><style>.cls-1{fill:#fff;}.cls-2{fill:#3f202e;}.cls-3{fill:#ff558b;}.cls-4{fill:#9f6aff;}</style></defs><title>ourea</title><rect class="cls-1" width="227" height="70"/><path class="cls-2" d="M145.32,47.81c-2-2.1-3.9-4.16-5.61-6.14a18,18,0,0,0,2.85-2.57,7.56,7.56,0,0,0,2-5.33,7.36,7.36,0,0,0-1.32-4.34,8.17,8.17,0,0,0-3.52-2.78,12.93,12.93,0,0,0-3.47-.93,48.13,48.13,0,0,0-6.94-.17l-2,0h-.75v.75c.07,4.85.1,8.24.1,10.05v3.78c0,3.48,0,6.43,0,8.77s0,3.93-.06,4.75v.75h4.88v-.75q0-1.23-.06-6c0-3.2,0-5.74,0-7.6,0-.82,0-2.22,0-4.19,0-1.79,0-3.84.05-6.13h1c.71,0,1.51,0,2.36.09a8.44,8.44,0,0,1,2.29.5,4.06,4.06,0,0,1,1.93,1.41,3.73,3.73,0,0,1,.69,2.27,5,5,0,0,1-.47,2.38A6,6,0,0,1,138,37.91a10.17,10.17,0,0,1-2,1.38,9.21,9.21,0,0,1-1.9.82l-.5.13-.08.79,0,.3.15.18c3.76,4.3,6.6,7.54,8.44,9.6s2.89,3.25,3.2,3.57l.48.5,3.69-3-.53-.58C148.76,51.38,147.58,50.16,145.32,47.81Z"/><path class="cls-2" d="M169.18,50.09h-.84l-5.12,0h-3.69l-2.19,0c0-.87,0-1.9,0-3.07,0-1.36,0-3.16,0-5.38h3.87l5.86,0,3.38,0h.74V37.36h-.74l-3,0q-2.83,0-6.42,0h-3.67c0-1.15,0-2.36,0-3.59s0-2.59,0-3.88H162c2.33,0,4.3,0,5.86,0l2.58,0h.74V25.65h-.74l-2.66,0c-1.64,0-3.75,0-6.35,0-1.54,0-3,0-4.48,0l-3.64,0h-.75v.76c0,2.66.07,5.31.08,7.86s0,4.57,0,6.11c0,2.8,0,5.52,0,8.14s0,4.31-.07,5.11l0,.77h.77l3.66,0,4.74,0,6.27,0,2.72,0h.75V50.07h-.75Z"/><path class="cls-2" d="M203.19,52.29c-.1-.23-1.49-3.23-4.1-8.92s-5.31-11.64-8-17.73l-.2-.44h-3.61l-.2.44c-2.73,6-5.42,11.88-8,17.45-2.51,5.41-4,8.64-4.37,9.35l-.33.64,4.11,2.22.31-.77c.08-.21.51-1.18,1.28-2.9s1.78-4,3.13-6.94h11.14c1.24,2.75,2.26,5,3,6.81,1.1,2.52,1.27,3,1.29,3l.3.79,4.56-2.36ZM192.52,40.61H185c.55-1.21,1.19-2.65,1.94-4.33s1.29-2.92,1.84-4.12l1.89,4.26Z"/><path class="cls-2" d="M118.74,25.59v.74c0,.19,0,1.32,0,3.39s0,4.71,0,7.92c0,1,0,2,0,3s0,2.12,0,3.23c0,2.39-.59,4.14-1.75,5.22s-3,1.64-5.44,1.64A7.72,7.72,0,0,1,106.3,49a6.58,6.58,0,0,1-1.9-5.12c0-1.11,0-2.18,0-3.23s0-2.07,0-3c0-3.22,0-5.84,0-7.81s0-3.13,0-3.47l0-.77H99.61v.74c0,2.61,0,4.8,0,6.5s0,3.19,0,4.46c0,1.55,0,2.87,0,4s0,2.05,0,2.85v.19l4,2,1.14,3.93-4.11-1A9.23,9.23,0,0,0,102.74,52a10.93,10.93,0,0,0,3.79,2.29,15,15,0,0,0,5.08.8,14.67,14.67,0,0,0,5.08-.82A10.76,10.76,0,0,0,120.46,52a9.32,9.32,0,0,0,2.32-3.43,12.24,12.24,0,0,0,.75-4.45c0-.8,0-1.75,0-2.85s0-2.42,0-4c0-1.27,0-2.75,0-4.46s0-3.9,0-6.5v-.74Z"/><path class="cls-3" d="M102.6,48.06,77.41,41.65l-.89,1.11a9.08,9.08,0,0,1-.39-3,10.06,10.06,0,0,1,.62-3.46A9.18,9.18,0,0,1,77.36,35l25,12.28Z"/><path class="cls-2" d="M90.44,46.52a10.05,10.05,0,0,1-1.64,2.11,8.7,8.7,0,0,1-2.65,1.76,8.27,8.27,0,0,1-6.24,0,8.47,8.47,0,0,1-2.54-1.66A10.35,10.35,0,0,1,74.91,45a14.19,14.19,0,0,1,0-9.76,10.61,10.61,0,0,1,2.38-3.78,8,8,0,0,1,2.63-1.79,8.46,8.46,0,0,1,6.26,0,8.47,8.47,0,0,1,2.53,1.7,10,10,0,0,1,2.52,4,15.23,15.23,0,0,1,.85,5,1.55,1.55,0,0,1,0,.22l4.75,2.33A19.28,19.28,0,0,0,97,40,17.51,17.51,0,0,0,96,33.87a14.39,14.39,0,0,0-3.2-5.07,13,13,0,0,0-4.3-2.92A14.24,14.24,0,0,0,77.59,26a13.14,13.14,0,0,0-4.48,3.15,14.62,14.62,0,0,0-3,4.9,17.07,17.07,0,0,0-1,6,17,17,0,0,0,1.27,6.66,14.57,14.57,0,0,0,3.37,4.93A12.77,12.77,0,0,0,78,54.32a13.87,13.87,0,0,0,5,.92,13.07,13.07,0,0,0,9.67-4,13.41,13.41,0,0,0,2.5-3.46Z"/><path class="cls-1" d="M71.37,34.28a13.31,13.31,0,0,1,2.76-4.46,10.47,10.47,0,0,1,1-1l.68.29c-.11.1-.22.19-.33.3a13.2,13.2,0,0,0-3,4.71c-.06.17-.11.34-.16.5l-1-.28,0-.09"/><path class="cls-1" d="M101,27.71l.6.3v5.58h-.9s.15-1.51.15-2.41S101,27.71,101,27.71Z"/><path class="cls-1" d="M128,27.71l.6.3v5.58h-.9s.15-1.51.15-2.41S128,27.71,128,27.71Z"/><path class="cls-1" d="M154.39,27.71l.6.3v5.58h-.9s.15-1.51.15-2.41S154.39,27.71,154.39,27.71Z"/><path class="cls-1" d="M187.56,27.77l.37.68-1.57,3.43-.75,1.64-.82-.37s.77-1.37,1.15-2.2S187.56,27.77,187.56,27.77Z"/><path class="cls-3" d="M67.9,32.83a17.54,17.54,0,0,1,1.23-2.59l-8-3.91L54.05,43.75l-9.95-29L30.19,38.87a.08.08,0,0,0,.08.12,14.56,14.56,0,0,1,4.41.64L42,30.93,53,52.32,61.16,38.8l6.92,9.11a20.85,20.85,0,0,1-1.41-7.75A20.88,20.88,0,0,1,67.9,32.83Z"/><polygon class="cls-1" points="35.46 33.77 34.41 33.83 43 18.64 43.06 19.68 35.46 33.77"/><ellipse class="cls-4" cx="30.84" cy="46.61" rx="7.34" ry="5.7"/><path class="cls-1" d="M26.7,43.91A6.24,6.24,0,0,0,25,46.16l-.47-.29a4.79,4.79,0,0,1,1.68-2.43,6.21,6.21,0,0,1,3.47-1.31l.09.47A6.56,6.56,0,0,0,26.7,43.91Z"/></svg>