<svg id="图层_1" data-name="图层 1" xmlns="http://www.w3.org/2000/svg" viewBox="0 0 79 79"><defs><style>.cls-1{fill:#fff;}.cls-2{fill:#9f6aff;}.cls-3{fill:#ff558b;}.cls-4{fill:#c9c6c8;}.cls-5{fill:#3f202e;}</style></defs><title>ourea</title><rect class="cls-1" width="79" height="79"/><path class="cls-2" d="M24.25,55C21.35,55,19,56.8,19,59.05s2.35,4.08,5.25,4.08,5.25-1.83,5.25-4.08S27.15,55,24.25,55Zm-3,2.15a4.5,4.5,0,0,0-1.21,1.6l-.33-.2A3.43,3.43,0,0,1,21,56.78a4.39,4.39,0,0,1,2.47-.94l.07.34A4.76,4.76,0,0,0,21.29,57.12Z"/><path class="cls-3" d="M52,52.72A41.26,41.26,0,0,1,61,52L45.93,44.55,40.85,57,36,42.73A10.14,10.14,0,0,1,32.31,41l-4.76,8.83-.75,0L32,40.79c-.2-.16-.38-.32-.57-.49l-7.6,13.21c0,.05,0,.1.05.09a10.48,10.48,0,0,1,3.16.46l5.2,2.78,7.9,6.29,5.83-9.67,5,6.52c-.33-.81-1.14-4.26-1.14-4.26l3,1.5Z"/><ellipse class="cls-4" cx="38.12" cy="30.39" rx="9.37" ry="10.67"/><path class="cls-5" d="M49,23c2.5,10.53-1.28,17.36-3,18-1.56.58,1-12.67-1-17-.53-1.17-4,4-5,2-.27-.54,1.5-3,1-3-1,0-1.24,1.6-3,3-.93.74,0-3.93-1-3-.69.62-3.3,4.35-4,5s.76-5.71,0-5c-3.28,3.07,0,18.37-1,18-1.72-.64-7-5.91-4-17,.75-2.72,3.29-7.28,10.12-7.28S48.52,21,49,23Z"/></svg>