<svg id="图层_1" data-name="图层 1" xmlns="http://www.w3.org/2000/svg" viewBox="0 0 79 79"><defs><style>.cls-1{fill:#fff;}.cls-2{fill:#9f6aff;}.cls-3{fill:#c9c6c8;}.cls-4{fill:#3f202e;}</style></defs><title>ourea</title><rect class="cls-1" width="79" height="79"/><path class="cls-2" d="M52,52.72A41.26,41.26,0,0,1,61,52L45.93,44.55,40.85,57,36,42.73A10.14,10.14,0,0,1,32.31,41l-4.76,8.83-.75,0L32,40.79c-.2-.16-.38-.32-.57-.49l-7.6,13.21c0,.05,0,.1.05.09a10.48,10.48,0,0,1,3.16.46l5.2,2.78,7.9,6.29,5.83-9.67,5,6.52c-.33-.81-1.14-4.26-1.14-4.26l3,1.5Z"/><ellipse class="cls-3" cx="38.13" cy="30.39" rx="9.38" ry="10.67"/><path class="cls-4" d="M47.5,20.47c.18.88,1.72,4.61,0,5.25-2.27.85-1.5-2.72-3.75-3-3.86-.47-16.48,5.35-18.75,4.5-1.72-.64,1.14-6.1,2.25-7.5C31,15,32.17,14,39,14S47,18,47.5,20.47Z"/><ellipse class="cls-2" cx="24.03" cy="62.17" rx="7.47" ry="7.33"/><path class="cls-1" d="M19.81,58.7a8.32,8.32,0,0,0-1.72,2.88l-.47-.36a6.62,6.62,0,0,1,1.71-3.13,5.51,5.51,0,0,1,3.53-1.68l.1.6A6,6,0,0,0,19.81,58.7Z"/><path class="cls-1" d="M26,61.93H24.66l.91-.91a.27.27,0,0,0,0-.39.28.28,0,0,0-.38,0l-.92.92v-1.3a.27.27,0,1,0-.54,0v1.3l-.92-.92a.28.28,0,0,0-.39.39l.92.91H22.05a.28.28,0,0,0-.28.28.27.27,0,0,0,.28.27h1.29l-.92.92a.28.28,0,0,0,0,.38.27.27,0,0,0,.39,0l.92-.92v1.3a.27.27,0,1,0,.54,0v-1.3l.92.92a.27.27,0,1,0,.38-.38l-.91-.92H26a.27.27,0,0,0,.27-.27A.28.28,0,0,0,26,61.93Z"/></svg>