<svg id="图层_1" data-name="图层 1" xmlns="http://www.w3.org/2000/svg" viewBox="0 0 79 79"><defs><style>.cls-1{fill:#9f6aff;}.cls-2{fill:#fff;}</style></defs><title>ourea</title><rect class="cls-1" width="79" height="79"/><path class="cls-2" d="M55,41a55,55,0,0,1,12-1L46.91,30.1,40.14,46.7,30.65,19l-13.27,23a.08.08,0,0,0,.08.12,13.6,13.6,0,0,1,4.2.61l6.94-8.3L39.14,54.87,46.91,42l6.61,8.68C53.08,49.59,52,45,52,45l4,2ZM22.4,37.19l-1,.05,8.18-14.48.06,1Z"/><ellipse class="cls-2" cx="18.03" cy="51.17" rx="7.47" ry="7.33"/><path class="cls-1" d="M13.81,47.7a8.32,8.32,0,0,0-1.72,2.88l-.47-.36a6.62,6.62,0,0,1,1.71-3.13,5.51,5.51,0,0,1,3.53-1.68l.1.6A6,6,0,0,0,13.81,47.7Z"/><path class="cls-1" d="M20,50.93H18.66l.91-.91a.27.27,0,0,0,0-.39.28.28,0,0,0-.38,0l-.92.92v-1.3a.27.27,0,1,0-.54,0v1.3l-.92-.92a.28.28,0,0,0-.39.39l.92.91H16.05a.28.28,0,0,0-.28.28.27.27,0,0,0,.28.27h1.29l-.92.92a.28.28,0,0,0,0,.38.27.27,0,0,0,.39,0l.92-.92v1.3a.27.27,0,1,0,.54,0v-1.3l.92.92a.27.27,0,1,0,.38-.38l-.91-.92H20a.27.27,0,0,0,.27-.27A.28.28,0,0,0,20,50.93Z"/></svg>