<svg id="图层_1" data-name="图层 1" xmlns="http://www.w3.org/2000/svg" viewBox="0 0 227 70"><defs><style>.cls-1{fill:#fff;}.cls-2{fill:#3f202e;}.cls-3{fill:#ff558b;}.cls-4{fill:#9f6aff;}</style></defs><title>ourea</title><rect class="cls-1" y="-0.29" width="227" height="70.58"/><path class="cls-2" d="M150.52,47.14c-2.13-2.22-4.14-4.42-6-6.52a19.16,19.16,0,0,0,3-2.72,8,8,0,0,0,2.11-5.66,7.73,7.73,0,0,0-1.41-4.61,8.55,8.55,0,0,0-3.73-2.94,13.3,13.3,0,0,0-3.68-1,52.5,52.5,0,0,0-7.37-.18l-2.14,0h-.8v.8c.07,5.15.11,8.74.11,10.66v4c0,3.7,0,6.83-.05,9.31s0,4.17-.06,5l0,.8h5.19l0-.8q0-1.31,0-6.4c0-3.4,0-6.09,0-8.07,0-.87,0-2.35,0-4.44,0-1.9,0-4.07,0-6.5h1c.76,0,1.6,0,2.5.09a8.57,8.57,0,0,1,2.43.53,4.32,4.32,0,0,1,2.06,1.5,4,4,0,0,1,.72,2.41,5.26,5.26,0,0,1-.5,2.53,6.46,6.46,0,0,1-1.23,1.62,11.23,11.23,0,0,1-2.14,1.46,10.3,10.3,0,0,1-2,.87l-.53.14-.09.84,0,.32.16.18c4,4.57,7,8,8.95,10.2s3.08,3.44,3.4,3.78L151,55l3.92-3.23-.56-.61C154.17,50.93,152.92,49.63,150.52,47.14Z"/><path class="cls-2" d="M175.84,49.56h-.9c-1.47,0-3.27,0-5.42,0l-3.93,0-2.32,0c0-.93,0-2,0-3.26,0-1.45,0-3.35,0-5.71h4.11l6.22,0,3.59,0h.78V36.05h-.78l-3.21,0q-3,0-6.81,0h-3.9c0-1.22,0-2.5,0-3.81s0-2.74,0-4.12h4.87c2.47,0,4.57,0,6.23,0l2.73,0h.78V23.63h-.78l-2.83,0-6.74,0-4.75,0-3.86,0h-.8l0,.8c0,2.83.07,5.63.08,8.34s0,4.85,0,6.48q0,4.47,0,8.64c0,2.76,0,4.58-.07,5.43l0,.81H159c1.06,0,2.35,0,3.88,0l5,0,6.65,0,2.89,0h.79V49.54h-.79Z"/><path class="cls-2" d="M211.93,51.89c-.12-.24-1.59-3.43-4.36-9.46s-5.64-12.35-8.52-18.81l-.21-.47H195l-.21.46c-2.89,6.38-5.74,12.61-8.48,18.52-2.66,5.74-4.27,9.17-4.64,9.92l-.35.68,4.36,2.36.33-.82c.08-.22.54-1.25,1.36-3.08l3.31-7.36h11.83c1.32,2.92,2.4,5.34,3.22,7.23,1.16,2.67,1.34,3.12,1.37,3.19l.31.83,4.84-2.5ZM200.6,39.5h-8c.58-1.28,1.27-2.82,2.06-4.6q1.08-2.44,1.95-4.37l2,4.52Z"/><path class="cls-2" d="M122.31,23.56v.79c0,.2,0,1.4,0,3.59s.05,5,.05,8.4c0,1,0,2.12,0,3.23s0,2.26,0,3.43c0,2.54-.62,4.4-1.85,5.54s-3.19,1.74-5.77,1.74a8.11,8.11,0,0,1-5.63-1.85,7,7,0,0,1-2-5.43c0-1.17,0-2.31,0-3.43s0-2.19,0-3.23c0-3.4,0-6.19,0-8.28s0-3.32.06-3.68l0-.82H102v.79c0,2.77,0,5.09,0,6.9s0,3.38,0,4.73c0,1.64,0,3.05,0,4.21s0,2.17,0,3v.2l4.22,2.07,1.2,4.16-4.36-1.11a9.94,9.94,0,0,0,2.2,3,11.64,11.64,0,0,0,4,2.42,16,16,0,0,0,5.39.85,15.67,15.67,0,0,0,5.39-.86,11.75,11.75,0,0,0,4-2.41,10,10,0,0,0,2.46-3.64,13,13,0,0,0,.8-4.72c0-.86,0-1.87,0-3s0-2.57,0-4.21c0-1.35,0-2.92,0-4.73s0-4.14,0-6.9v-.79Z"/><path class="cls-3" d="M105.19,47.41,78.46,40.6l-.94,1.18a9.53,9.53,0,0,1-.42-3.14A10.64,10.64,0,0,1,77.76,35a9.77,9.77,0,0,1,.65-1.39l26.54,13Z"/><path class="cls-2" d="M92.28,45.77A10.38,10.38,0,0,1,90.54,48a8.88,8.88,0,0,1-2.81,1.86,8.68,8.68,0,0,1-6.62,0,8.94,8.94,0,0,1-2.7-1.76,11,11,0,0,1-2.6-3.91,15,15,0,0,1,0-10.36,11.2,11.2,0,0,1,2.52-4,8.69,8.69,0,0,1,2.8-1.9,9,9,0,0,1,6.63,0,9.07,9.07,0,0,1,2.69,1.8A10.56,10.56,0,0,1,93.11,34a16,16,0,0,1,.9,5.28v.22l5,2.48a19,19,0,0,0,.24-3,18.65,18.65,0,0,0-1.15-6.53A15,15,0,0,0,94.74,27a14.11,14.11,0,0,0-4.57-3.1,15.08,15.08,0,0,0-11.52.07,14.11,14.11,0,0,0-4.75,3.34,15.74,15.74,0,0,0-3.21,5.2,18.21,18.21,0,0,0-1.07,6.36A17.78,17.78,0,0,0,71,45.9a15.44,15.44,0,0,0,3.57,5.24,13.75,13.75,0,0,0,4.55,2.91,15,15,0,0,0,5.36,1,14.55,14.55,0,0,0,5.45-1,14.76,14.76,0,0,0,4.81-3.26,14.36,14.36,0,0,0,2.64-3.67Z"/><path class="cls-1" d="M72.05,32.78A14.08,14.08,0,0,1,75,28.05a11.76,11.76,0,0,1,1.09-1l.73.31-.35.32a14.06,14.06,0,0,0-3.16,5c-.06.17-.11.35-.17.53l-1.1-.3,0-.1"/><path class="cls-1" d="M103.5,25.81l.64.32v5.92h-1s.16-1.6.16-2.56S103.5,25.81,103.5,25.81Z"/><path class="cls-1" d="M132.14,25.81l.64.32v5.92h-1s.16-1.6.16-2.56S132.14,25.81,132.14,25.81Z"/><path class="cls-1" d="M160.14,25.81l.64.32v5.92h-1s.16-1.6.16-2.56S160.14,25.81,160.14,25.81Z"/><path class="cls-1" d="M195.34,25.88l.39.72-1.66,3.63-.8,1.75-.88-.4s.83-1.45,1.23-2.33S195.34,25.88,195.34,25.88Z"/><path class="cls-3" d="M68.19,32.44a22.55,22.55,0,0,1,1.49-3.14L60,24.57l-8.6,21.09-12-35.17L22.54,39.76a.09.09,0,0,0,.09.14,17.5,17.5,0,0,1,5.34.78l8.8-10.54L50.16,56,60,39.67l8.39,11a25,25,0,0,1-1.72-9.39A25.36,25.36,0,0,1,68.19,32.44Z"/><polygon class="cls-1" points="28.91 33.58 27.64 33.65 38.04 15.25 38.11 16.52 28.91 33.58"/><ellipse class="cls-4" cx="23.5" cy="50.39" rx="8.89" ry="8.71"/><path class="cls-1" d="M18.49,46.26a9.91,9.91,0,0,0-2,3.43l-.57-.43a7.78,7.78,0,0,1,2-3.72,6.55,6.55,0,0,1,4.2-2l.11.72A7.06,7.06,0,0,0,18.49,46.26Z"/><path class="cls-1" d="M25.79,50.11H24.25L25.34,49a.33.33,0,0,0-.46-.46l-1.09,1.09V48.11a.32.32,0,0,0-.64,0v1.54l-1.1-1.09a.31.31,0,0,0-.45,0,.32.32,0,0,0,0,.46l1.09,1.09H21.15a.32.32,0,0,0-.33.32.33.33,0,0,0,.33.33h1.54L21.6,51.85a.32.32,0,1,0,.45.45l1.1-1.09v1.55a.32.32,0,1,0,.64,0V51.21l1.09,1.09a.32.32,0,0,0,.46,0,.31.31,0,0,0,0-.45l-1.09-1.09h1.54a.33.33,0,0,0,.33-.33A.32.32,0,0,0,25.79,50.11Z"/></svg>