<svg id="图层_1" data-name="图层 1" xmlns="http://www.w3.org/2000/svg" viewBox="0 0 79 79"><defs><style>.cls-1{fill:#fff;}.cls-2{fill:#9f6aff;}</style></defs><title>ourea</title><rect class="cls-1" width="79" height="79"/><path class="cls-2" d="M13.61,46.41A4.59,4.59,0,0,0,12,48.73l.45.27a6,6,0,0,1,1.6-2.14A6.31,6.31,0,0,1,17,45.61l-.09-.45A5.88,5.88,0,0,0,13.61,46.41Z"/><polygon class="cls-2" points="21.41 37.24 22.4 37.19 29.65 23.75 29.59 22.75 21.41 37.24"/><path class="cls-2" d="M0,0V79H79V0ZM18,54.88c-3.87,0-7-2.44-7-5.44S14.13,44,18,44s7,2.43,7,5.44S21.87,54.88,18,54.88ZM56,47l-4-2s1.08,4.59,1.52,5.67L46.91,42,39.14,54.87,28.6,34.48l-6.94,8.3a13.6,13.6,0,0,0-4.2-.61.08.08,0,0,1-.08-.12L30.65,19l9.49,27.7,6.77-16.6L67,40a55,55,0,0,0-12,1Z"/></svg>